<?xml version="1.0" standalone="no"?>
<!DOCTYPE svg PUBLIC "-//W3C//DTD SVG 20010904//EN"
 "http://www.w3.org/TR/2001/REC-SVG-20010904/DTD/svg10.dtd">
<svg version="1.0" xmlns="http://www.w3.org/2000/svg"
 width="787.000000pt" height="787.000000pt" viewBox="0 0 787.000000 787.000000"
 preserveAspectRatio="xMidYMid meet">
<metadata>
Created by potrace 1.14, written by Peter Selinger 2001-2017
</metadata>
<g transform="translate(0.000000,787.000000) scale(0.100000,-0.100000)"
fill="#000000" stroke="none">
<path d="M3605 7855 c-930 -102 -1753 -585 -2292 -1345 -161 -227 -320 -539
-402 -791 l-22 -67 -60 -6 c-84 -10 -229 -59 -319 -108 -232 -127 -410 -353
-482 -613 -22 -78 -23 -94 -26 -710 -2 -550 -1 -640 13 -710 71 -350 325 -637
663 -749 l52 -18 0 -236 0 -237 173 -175 c95 -96 281 -287 412 -425 558 -583
976 -997 1142 -1130 370 -298 766 -467 1202 -515 131 -14 406 -14 531 0 487
54 928 250 1287 571 46 41 436 434 868 874 l785 800 0 237 0 236 52 18 c282
93 510 312 616 589 62 164 63 175 60 870 -3 616 -4 632 -26 710 -72 260 -250
486 -482 613 -90 49 -235 98 -319 108 l-60 6 -27 82 c-203 612 -656 1197
-1229 1587 -373 254 -842 441 -1275 509 -264 41 -597 51 -835 25z"/>
</g>
</svg>
